PathFileType	4	(X/Y/Z)	30_2_103_p1_0-684.trc
DataRate	CameraRate	NumFrames	NumMarkers	Units	OrigDataRate	OrigDataStartFrame	OrigNumFrames
49.0	49.0	5	27	m	49.0	171	685
Frame#	Time	RHip			RKnee			RAnkle			RBigToe			RSmallToe			RHeel			LHip			LKnee			LAnkle			LBigToe			LSmallToe			LHeel			Neck			Head			Nose			RShoulder			RElbow			RWrist			RThumb			RIndex			RPinky			LShoulder			LElbow			LWrist			LThumb			LIndex			LPinky			
		X1	Y1	Z1	X2	Y2	Z2	X3	Y3	Z3	X4	Y4	Z4	X5	Y5	Z5	X6	Y6	Z6	X7	Y7	Z7	X8	Y8	Z8	X9	Y9	Z9	X10	Y10	Z10	X11	Y11	Z11	X12	Y12	Z12	X13	Y13	Z13	X14	Y14	Z14	X15	Y15	Z15	X16	Y16	Z16	X17	Y17	Z17	X18	Y18	Z18	X19	Y19	Z19	X20	Y20	Z20	X21	Y21	Z21	X22	Y22	Z22	X23	Y23	Z23	X24	Y24	Z24	X25	Y25	Z25	X26	Y26	Z26	X27	Y27	Z27	
171	3.489795918367347	0.29551842210244933	0.5345746943515405	0.8460655341327878	0.2913563678582317	0.5438715568605391	1.315819076901423	0.2653480024785731	0.5541496859816405	1.7880638470840642	0.23759811986334362	0.33741672480873364	1.7807635397980304	0.30776623023440125	0.3759841194636532	1.7894867700111117	0.24972681486214923	0.6217178939475756	1.869907502166303	0.09453984044304649	0.47866558592329717	0.8352470113889544	0.09824215237505239	0.5163985750977264	1.3189175325811089	0.07880137159371957	0.5233665796408804	1.7857389518997067	0.11760506022922049	0.3617338320041318	1.7937846998597937	0.05619708071142689	0.36730359582148664	1.7853557713176793	0.08572997660805498	0.5487889129728364	1.826657746162153	0.17407591474338616	0.45863615977371813	0.29677108024402094	0.13390998443551916	0.27044012546364465	0.013262905173246747	0.13571165741926752	0.2671074154996159	0.20324537149334485	0.364322328384704	0.47835369670886463	0.30939726458296357	0.4854559598055296	0.5956300014996522	0.5474577579217452	0.5556697836272763	0.5546693499524397	0.7584917201517597	0.5194649515700991	0.49082292912433323	0.9017348232277962	0.5343581215147669	0.4695361632167252	0.912765823903043	0.5075691894198572	0.5436181309675876	0.9389843869128052	0.0028053983063258147	0.4716209549907384	0.3368420474516919	-0.1437923278968533	0.5901356601120494	0.4967094462421409	-0.2971989206972753	0.7334416815036974	0.6800131495129255	-0.31090599838448607	0.7790640951417663	0.7921562451743496	-0.34916436282376395	0.8381533247376414	0.8162288325027611	-0.34587831679686354	0.8427345025639286	0.7918385074436097
172	3.510204081632653	0.29556687037954904	0.5346914996006433	0.8461944415885542	0.2953841689690371	0.5470747509921774	1.3128667292661165	0.26560271804481045	0.5543183762328276	1.7884674797595201	0.24127874714840825	0.3486010610610555	1.7880840720139628	0.3078635168704324	0.37617920190440957	1.7894473540454456	0.2500353917797582	0.6216912484899212	1.8702298670606559	0.09512745550771005	0.47985779202846796	0.8396994154495998	0.09828679280556443	0.5163815014672888	1.3192716147062615	0.07865767774828594	0.5234070543094238	1.785697185925272	0.11832993253360859	0.3625940694318374	1.7947213017552823	0.05773236693178772	0.3650787940806098	1.7855089654963834	0.07978958136436039	0.5380365554087182	1.8227779622260514	0.17412078647619858	0.4585282961130932	0.29663114592401246	0.13386451239736635	0.2709766734287689	0.013158346069348202	0.13584497527570025	0.2674393843015881	0.20311853007500802	0.3643405782166352	0.47787312225060785	0.3126994241125059	0.48544620680552764	0.5957123208189684	0.547521794832694	0.5562791662716229	0.5548784794083955	0.766220398309343	0.5236409702192901	0.4894541586203764	0.9010615342381386	0.5367987941646699	0.45515433450700044	0.9079874733641787	0.5074588870084359	0.5435958813237259	0.9389393954393012	0.003101625600098878	0.47215889658277327	0.3403358395763622	-0.14362393440046847	0.5897909616479169	0.5006449080504325	-0.28695034389734697	0.721980996667919	0.6815934103391251	-0.2989549497552689	0.7683344817877131	0.7989975548470444	-0.33789043850488726	0.82466462432764	0.8200853641754534	-0.3456271349665519	0.8411909271085566	0.7993617708627748
173	3.5306122448979593	0.2986326786454613	0.5213599557414946	0.8377546926471625	0.29552178597548895	0.5474498605073953	1.3126392033541974	0.26861282666491715	0.56591178245224	1.7906877436739772	0.24131354734501342	0.3483026012909796	1.7883950112454763	0.3111923108356981	0.36127285641465867	1.7797455756903053	0.25028235248189723	0.6231682826510597	1.870800829916307	0.0988398667590267	0.4818839847538959	0.8318001576095045	0.10295891574189134	0.5020732695711908	1.3121541967537418	0.082916704150013	0.5239926545124022	1.7864645454674324	0.11969370021723337	0.36277049234672276	1.7909581744126688	0.06701097029091166	0.35285920646840657	1.776840912737508	0.08249763768293474	0.5465909286929928	1.8284645864045062	0.17426558868411002	0.4589644406635065	0.29361353858434064	0.1336148003825362	0.27131275783759673	0.010266534665666217	0.13615755254626327	0.2673778757710887	0.20313137188593133	0.36442112523478054	0.4783527187544499	0.3094272441986867	0.48542260204948817	0.5959378081484737	0.5475947966949433	0.556944850129597	0.5538694979190181	0.7662706336115892	0.5263661110475646	0.4893081526087716	0.9050419880210576	0.5368110910130938	0.4546606055638279	0.907997216924964	0.5028513040387182	0.5415394446067575	0.9385442910990586	0.006943897631402121	0.4597082190487272	0.3315357178478557	-0.1371470713089185	0.6054855415239994	0.4988739360235779	-0.28684387630755864	0.7216735963006929	0.6854728788724072	-0.2833669703953581	0.7861004887681393	0.8063871834589346	-0.3235601510757993	0.7957823975179189	0.8263256589320409	-0.33497178419457446	0.8289477575286388	0.795398961304682
174	3.5510204081632653	0.2996603147027876	0.5223894788047778	0.8378750836336389	0.2951952332225574	0.548857579295334	1.3090066236595752	0.2698138745361726	0.5677664387130315	1.7965330987515467	0.2450735081801338	0.36043931311099353	1.7960398307409382	0.3119570387263521	0.3884344135133398	1.7970178864970898	0.25029734514065727	0.6226602497123691	1.8707978657517907	0.09946309660231605	0.4830322269765883	0.8360695192283181	0.09833420043661177	0.5166700919612689	1.319231815854524	0.08505360545243257	0.5254366444484363	1.7868978659991785	0.11920930466467855	0.36334994104013885	1.795782625310207	0.062394475612750466	0.3668097576875124	1.7865836901002514	0.08371809524319115	0.5486715590485383	1.8305631594565215	0.1744364860627292	0.45919165522121713	0.2936028969438688	0.13341256167192223	0.27215611665189426	0.0074034534300945155	0.14046107037633895	0.26903760014583095	0.20299365019666657	0.3670938601698462	0.4650209503316137	0.3075410600207459	0.4852582700167641	0.5958704960445466	0.5476703828263132	0.5555485594815155	0.5702737371915562	0.774879936045241	0.5110947821878111	0.5028202271906781	0.9164274844894805	0.5255948943134322	0.4572713810897731	0.9099223339300924	0.5074279830549663	0.5435460931462041	0.9349495055174969	0.007307677919906512	0.4603962868331477	0.3351280280804997	-0.13298172387496357	0.6092376759442946	0.5043172179674271	-0.2856819868214377	0.7220546964534582	0.7070596667832469	-0.27315720732829857	0.8327498185617894	0.8433515708488424	-0.30851457187244813	0.8128027940004431	0.8456987409333019	-0.30103442362071325	0.7699598775753176	0.7870764159841176
175	3.5714285714285716	0.30005014245558176	0.5231840979442739	0.845781279373376	0.29525374330097015	0.548947593282782	1.3090123948869625	0.2699046483762489	0.5680405140191069	1.796823467224378	0.24499194189724596	0.3604844814435397	1.7954334207232467	0.30804497224264527	0.37706041026282944	1.7893869068261032	0.255665472424179	0.6237890385510054	1.8708564897081934	0.09950525056612075	0.4830108190570829	0.8361279795919542	0.0983889833759228	0.5168158737913806	1.3192752200962958	0.085057319472468	0.5252527451542689	1.786853070060425	0.12424437375901096	0.3656758053457878	1.79683578142633	0.06246578977219318	0.36680925100498235	1.7865314058894013	0.08361727028169756	0.5483513327449564	1.8303271842369666	0.17444573323184234	0.4591695663647714	0.29350849270780793	0.13360032056393825	0.27177523115412333	0.010017792724426869	0.14698772287243822	0.26742761967031975	0.20251901822378565	0.3670998672477036	0.46513669034435956	0.30752082825769356	0.48101221481557194	0.5944926276521507	0.5476783740962564	0.5587790769674399	0.5547150715777286	0.7825618851555733	0.510918653498929	0.5037230982965517	0.9130950361367101	0.5254829300666921	0.4584477323153955	0.9102769333763376	0.5071790002206579	0.5430929064210883	0.9390209052769758	0.007298858870662607	0.46044233523550043	0.33512711404204176	-0.13954399423002245	0.5930755601777323	0.5054425690904523	-0.27932229332798275	0.7078141447253133	0.7203039199590275	-0.2524181241958691	0.8317263725663695	0.8411306380271579	-0.29555536529667	0.781307745331942	0.840464530069649	-0.29418121065509	0.7852481247894844	0.8036628176168699
